<svg width="186" height="26" viewBox="0 0 186 26" fill="none" xmlns="http://www.w3.org/2000/svg">
<g clip-path="url(#clip0_1_94)">
<path d="M28.2952 11.2327V9.53332H31.9318V6.52548C31.9318 5.99302 32.1017 5.55119 32.4416 5.19999C32.7814 4.8488 33.2233 4.6732 33.7671 4.6732H38.4233V6.38954H34.4298C33.9993 6.38954 33.7841 6.62744 33.7841 7.10326V9.53332H38.7122V11.2327H33.7841V21.3268H31.9318V11.2327H28.2952ZM52.154 16.7046L54.0063 17.1464C53.8817 17.7921 53.6664 18.3926 53.3605 18.9477C53.0433 19.5028 52.6468 19.9843 52.171 20.3921C51.6952 20.7886 51.14 21.1002 50.5056 21.3268C49.8712 21.5534 49.1688 21.6666 48.3984 21.6666C47.5714 21.6666 46.7897 21.5307 46.0533 21.2588C45.3169 20.9869 44.6712 20.5961 44.1161 20.0863C43.561 19.5651 43.1191 18.9307 42.7906 18.183C42.462 17.4353 42.2978 16.5799 42.2978 15.617V15.3281C42.2978 14.3765 42.462 13.5211 42.7906 12.7621C43.1191 12.003 43.561 11.363 44.1161 10.8418C44.6712 10.3094 45.3169 9.90151 46.0533 9.61829C46.7897 9.33507 47.5714 9.19345 48.3984 9.19345C49.1461 9.19345 49.8372 9.30674 50.4716 9.53332C51.1061 9.74857 51.6612 10.0601 52.137 10.468C52.6241 10.8758 53.0207 11.3573 53.3265 11.9124C53.6437 12.4675 53.8533 13.068 53.9553 13.7137L52.103 14.1385C52.0577 13.7307 51.9444 13.3285 51.7631 12.932C51.5819 12.5468 51.3326 12.207 51.0154 11.9124C50.7095 11.6179 50.3357 11.3856 49.8939 11.2157C49.452 11.0457 48.9366 10.9608 48.3475 10.9608C47.781 10.9608 47.2429 11.0684 46.7331 11.2836C46.2346 11.4876 45.7984 11.7878 45.4246 12.1843C45.0394 12.5695 44.7392 13.034 44.5239 13.5778C44.3087 14.1102 44.201 14.6937 44.201 15.3281V15.617C44.201 16.2854 44.3087 16.8858 44.5239 17.4183C44.7392 17.9507 45.0394 18.3982 45.4246 18.7608C45.7984 19.1233 46.2403 19.4008 46.7501 19.5934C47.2599 19.7974 47.8093 19.8993 48.3984 19.8993C48.9875 19.8993 49.4973 19.8087 49.9278 19.6274C50.3697 19.4462 50.7435 19.2083 51.0494 18.9137C51.3553 18.6192 51.5989 18.2793 51.7801 17.8941C51.9614 17.5202 52.086 17.1237 52.154 16.7046ZM68.6716 15.2771V15.566C68.6716 16.5516 68.5074 17.4183 68.1788 18.166C67.8503 18.925 67.4198 19.5651 66.8873 20.0863C66.3435 20.5961 65.7091 20.9869 64.984 21.2588C64.2703 21.5307 63.5226 21.6666 62.7409 21.6666C61.9479 21.6666 61.1945 21.5307 60.4808 21.2588C59.7671 20.9869 59.1383 20.5961 58.5945 20.0863C58.062 19.5651 57.6315 18.925 57.303 18.166C56.9745 17.4183 56.8102 16.5516 56.8102 15.566V15.2771C56.8102 14.3141 56.9745 13.4588 57.303 12.7111C57.6315 11.9521 58.0677 11.312 58.6115 10.7908C59.1553 10.2697 59.784 9.87319 60.4978 9.6013C61.2115 9.3294 61.9592 9.19345 62.7409 9.19345C63.5226 9.19345 64.2703 9.3294 64.984 9.6013C65.6978 9.87319 66.3265 10.2697 66.8703 10.7908C67.4141 11.312 67.8503 11.9521 68.1788 12.7111C68.5074 13.4588 68.6716 14.3141 68.6716 15.2771ZM62.7409 19.8993C63.3074 19.8993 63.8342 19.7974 64.3213 19.5934C64.8084 19.4008 65.2333 19.112 65.5958 18.7268C65.9583 18.3529 66.2416 17.8998 66.4455 17.3673C66.6607 16.8348 66.7684 16.2344 66.7684 15.566V15.2771C66.7684 14.6427 66.6607 14.0592 66.4455 13.5268C66.2416 13.0057 65.9583 12.5525 65.5958 12.1673C65.2333 11.7821 64.8028 11.4876 64.3043 11.2836C63.8172 11.0684 63.296 10.9608 62.7409 10.9608C62.1858 10.9608 61.6647 11.0684 61.1775 11.2836C60.679 11.4876 60.2485 11.7821 59.886 12.1673C59.5235 12.5525 59.2403 13.0057 59.0363 13.5268C58.8211 14.0592 58.7135 14.6427 58.7135 15.2771V15.566C58.7135 16.2344 58.8211 16.8348 59.0363 17.3673C59.2403 17.8998 59.5235 18.3529 59.886 18.7268C60.2485 19.112 60.6734 19.4008 61.1605 19.5934C61.6477 19.7974 62.1745 19.8993 62.7409 19.8993ZM73.9396 15.1921V21.3268H72.0873V9.53332H73.9396V11.5216H74.2285C74.9649 9.96949 76.2337 9.19345 78.035 9.19345C79.4058 9.19345 80.4934 9.61829 81.2978 10.468C82.1021 11.3176 82.5043 12.5921 82.5043 14.2915V21.3268H80.652V14.6653C80.652 13.4305 80.3745 12.5015 79.8193 11.8784C79.2642 11.2667 78.5108 10.9608 77.5592 10.9608C76.4376 10.9608 75.554 11.3403 74.9082 12.0993C74.2625 12.8697 73.9396 13.9006 73.9396 15.1921ZM86.2429 11.2327V9.53332H89.9644V4.6732H91.8167V9.53332H96.388V11.2327H91.8167V18.8967C91.8167 19.3725 92.032 19.6104 92.4625 19.6104H95.8102V21.3268H91.7827C91.2503 21.3268 90.8141 21.1512 90.4742 20.8C90.1344 20.4488 89.9644 20.0069 89.9644 19.4745V11.2327H86.2429ZM100.551 11.2327V9.53332H104.834V11.0967H105.106C105.411 10.451 105.842 9.96949 106.397 9.65228C106.952 9.3464 107.587 9.19345 108.3 9.19345C109.49 9.19345 110.447 9.5843 111.172 10.366C111.909 11.1364 112.3 12.2693 112.345 13.7647L110.391 14.0536C110.391 12.9547 110.13 12.1616 109.609 11.6745C109.088 11.1987 108.448 10.9608 107.689 10.9608C107.19 10.9608 106.765 11.0514 106.414 11.2327C106.052 11.4253 105.751 11.6915 105.513 12.0314C105.276 12.3599 105.1 12.7451 104.987 13.1869C104.885 13.6287 104.834 14.1046 104.834 14.6144V19.6104H107.825V21.3268H100.262V19.6104H102.964V11.2327H100.551ZM126.636 15.9908H117.12C117.177 17.169 117.545 18.115 118.225 18.8287C118.904 19.5425 119.856 19.8993 121.079 19.8993C121.635 19.8993 122.116 19.837 122.524 19.7124C122.943 19.5878 123.294 19.4122 123.577 19.1856C123.872 18.959 124.11 18.6985 124.291 18.4039C124.484 18.1207 124.631 17.8091 124.733 17.4693L126.5 17.9451C126.172 19.044 125.554 19.939 124.648 20.63C123.753 21.3211 122.547 21.6666 121.028 21.6666C120.19 21.6666 119.414 21.5194 118.7 21.2248C117.998 20.9303 117.392 20.5111 116.882 19.9673C116.384 19.4348 115.987 18.7947 115.693 18.047C115.409 17.2993 115.268 16.4723 115.268 15.566V15.0052C115.268 14.1782 115.415 13.4078 115.71 12.6941C116.004 11.9804 116.412 11.363 116.933 10.8418C117.454 10.332 118.072 9.92984 118.785 9.63528C119.488 9.34073 120.252 9.19345 121.079 9.19345C122.042 9.19345 122.875 9.37472 123.577 9.73724C124.291 10.0884 124.875 10.5246 125.328 11.0457C125.781 11.5669 126.11 12.139 126.313 12.7621C126.529 13.3852 126.636 13.9573 126.636 14.4784V15.9908ZM121.079 10.9608C120.558 10.9608 120.071 11.0401 119.618 11.1987C119.165 11.3686 118.768 11.6065 118.428 11.9124C118.089 12.207 117.811 12.5582 117.596 12.966C117.381 13.3738 117.239 13.8157 117.171 14.2915H124.784C124.75 13.7817 124.625 13.3172 124.41 12.898C124.206 12.4902 123.929 12.1446 123.577 11.8614C123.238 11.5782 122.852 11.3573 122.422 11.1987C121.98 11.0401 121.533 10.9608 121.079 10.9608ZM129.661 11.2327V9.53332H133.944V11.0967H134.232C134.538 10.451 134.969 9.96949 135.524 9.65228C136.079 9.3464 136.713 9.19345 137.427 9.19345C138.617 9.19345 139.574 9.5843 140.299 10.366C141.024 11.1364 141.415 12.2693 141.472 13.7647L139.517 14.0536C139.517 12.9547 139.257 12.1616 138.736 11.6745C138.203 11.1987 137.557 10.9608 136.798 10.9608C136.311 10.9608 135.886 11.0514 135.524 11.2327C135.173 11.4253 134.878 11.6915 134.64 12.0314C134.402 12.3599 134.227 12.7451 134.113 13.1869C134 13.6287 133.944 14.1046 133.944 14.6144V19.6104H136.951V21.3268H129.372V19.6104H132.091V11.2327H129.661ZM153.452 19.4745V19.3215H153.163C152.789 20.1146 152.262 20.7037 151.583 21.0889C150.914 21.4741 150.206 21.6666 149.459 21.6666C148.677 21.6666 147.957 21.5307 147.3 21.2588C146.632 20.9982 146.049 20.6131 145.55 20.1032C145.052 19.5821 144.655 18.9534 144.36 18.217C144.077 17.4693 143.936 16.6026 143.936 15.617V15.2431C143.936 14.2688 144.077 13.4078 144.36 12.6601C144.655 11.9237 145.052 11.295 145.55 10.7738C146.049 10.264 146.632 9.87319 147.3 9.6013C147.957 9.3294 148.66 9.19345 149.408 9.19345C150.223 9.19345 150.96 9.37472 151.617 9.73724C152.274 10.0884 152.789 10.6379 153.163 11.3856H153.452V9.53332H155.304V18.8967C155.304 19.3725 155.52 19.6104 155.95 19.6104H156.545V21.3268H155.287C154.743 21.3268 154.302 21.1512 153.962 20.8C153.622 20.4488 153.452 20.0069 153.452 19.4745ZM149.645 19.8993C150.201 19.8993 150.716 19.7974 151.192 19.5934C151.656 19.3895 152.053 19.095 152.381 18.7098C152.721 18.3246 152.982 17.8658 153.163 17.3333C153.356 16.8122 153.452 16.2231 153.452 15.566V15.2771C153.452 14.6427 153.356 14.0592 153.163 13.5268C152.982 13.0057 152.716 12.5525 152.364 12.1673C152.025 11.7821 151.622 11.4876 151.158 11.2836C150.693 11.0684 150.189 10.9608 149.645 10.9608C149.09 10.9608 148.586 11.0627 148.133 11.2667C147.669 11.4706 147.266 11.7595 146.927 12.1333C146.587 12.5072 146.32 12.9603 146.128 13.4928C145.935 14.0253 145.839 14.6087 145.839 15.2431V15.617C145.839 16.9651 146.19 18.0131 146.893 18.7608C147.606 19.5198 148.524 19.8993 149.645 19.8993ZM161.898 12.5751C161.898 13.1416 162.141 13.5778 162.628 13.8836C163.116 14.1782 163.999 14.3765 165.279 14.4784C166.662 14.5917 167.71 14.9202 168.423 15.464C169.148 16.0078 169.511 16.8065 169.511 17.8601V17.9961C169.511 18.5625 169.398 19.0723 169.171 19.5255C168.944 19.9786 168.627 20.3638 168.219 20.681C167.811 20.9982 167.319 21.2418 166.741 21.4117C166.163 21.5817 165.534 21.6666 164.855 21.6666C163.937 21.6666 163.144 21.542 162.476 21.2928C161.818 21.0435 161.275 20.715 160.844 20.3072C160.402 19.9107 160.074 19.4518 159.859 18.9307C159.632 18.4209 159.502 17.9054 159.468 17.3843L161.235 16.9425C161.314 17.8488 161.666 18.5738 162.289 19.1176C162.9 19.6727 163.722 19.9503 164.753 19.9503C165.625 19.9503 166.327 19.7804 166.86 19.4405C167.392 19.1006 167.659 18.6192 167.659 17.9961C167.659 17.3277 167.398 16.8518 166.877 16.5686C166.356 16.2854 165.506 16.1041 164.328 16.0248C162.968 15.9229 161.92 15.6056 161.184 15.0732C160.459 14.5294 160.096 13.742 160.096 12.7111V12.5751C160.096 12.02 160.215 11.5329 160.453 11.1137C160.691 10.6945 161.008 10.3377 161.405 10.0431C161.813 9.7599 162.272 9.55032 162.781 9.41437C163.291 9.26709 163.824 9.19345 164.379 9.19345C165.149 9.19345 165.829 9.30108 166.418 9.51633C167.007 9.73158 167.5 10.0091 167.896 10.349C168.293 10.6889 168.599 11.0797 168.814 11.5216C169.029 11.9634 169.165 12.4109 169.222 12.864L167.472 13.2889C167.392 12.5298 167.086 11.9351 166.554 11.5046C166.021 11.0741 165.325 10.8588 164.464 10.8588C164.135 10.8588 163.818 10.8928 163.512 10.9608C163.195 11.0401 162.917 11.1477 162.679 11.2836C162.442 11.4309 162.255 11.6122 162.119 11.8274C161.971 12.0427 161.898 12.2919 161.898 12.5751ZM175.611 19.4745H184.89V21.3268H173.606V18.4719C173.606 17.7128 173.731 17.0501 173.98 16.4836C174.241 15.9172 174.603 15.4357 175.068 15.0392C175.532 14.6314 176.099 14.2915 176.767 14.0196C177.435 13.7477 178.189 13.5211 179.027 13.3399C180.443 13.0226 181.463 12.5695 182.086 11.9804C182.709 11.3913 183.021 10.6662 183.021 9.80522V9.66927C183.021 9.23877 182.953 8.8196 182.817 8.41176C182.669 7.99258 182.449 7.61873 182.154 7.29019C181.848 6.96165 181.463 6.69542 180.998 6.4915C180.523 6.2989 179.962 6.20261 179.316 6.20261C178.093 6.20261 177.147 6.5708 176.478 7.30718C175.798 8.05489 175.459 9.04618 175.459 10.281V11.3346H173.47V10.1451C173.47 9.38605 173.595 8.65533 173.844 7.95293C174.093 7.26187 174.467 6.64444 174.966 6.10065C175.453 5.55686 176.065 5.12636 176.801 4.80915C177.526 4.49193 178.364 4.33333 179.316 4.33333C180.279 4.33333 181.117 4.48061 181.831 4.77516C182.545 5.06971 183.14 5.46056 183.615 5.94771C184.091 6.43485 184.448 6.97864 184.686 7.57908C184.913 8.19084 185.026 8.81393 185.026 9.44835V9.89018C185.026 11.159 184.629 12.2409 183.836 13.1359C183.043 14.0309 181.774 14.6653 180.03 15.0392C178.512 15.3791 177.396 15.8209 176.682 16.3647C175.968 16.9085 175.611 17.7072 175.611 18.7608V19.4745Z" fill="#1E1E1E"/>
<path d="M9.24087 17.3205L3.53723 14.2019V12.4736L9.24087 9.36769V11.4024L5.26239 13.3158L9.24087 15.301V17.3205ZM9.76872 18.6915L11.8291 7.8678H13.0283L10.9448 18.6915H9.76872ZM13.5555 17.3291V15.3077L17.5388 13.3373L13.5555 11.3878V9.38163L19.2649 12.4879V14.2019L13.5555 17.3291Z" fill="url(#paint0_linear_1_94)"/>
<path d="M11.4007 26.2799L0.142334 19.7804V6.77978L11.4007 0.279938L22.6597 6.7801V19.7795L11.4007 26.2799ZM1.28452 19.1204L11.4007 24.961L21.5175 19.1204V7.43943L11.4007 1.5986L1.28452 7.43911V19.1204Z" fill="url(#paint1_linear_1_94)"/>
</g>
<defs>
<linearGradient id="paint0_linear_1_94" x1="-0.800023" y1="9.74115" x2="13.454" y2="16.3879" gradientUnits="userSpaceOnUse">
<stop stop-color="#0015D6"/>
<stop offset="1" stop-color="#0989FB"/>
</linearGradient>
<linearGradient id="paint1_linear_1_94" x1="-0.670081" y1="1.42948" x2="19.7376" y2="10.9457" gradientUnits="userSpaceOnUse">
<stop stop-color="#0015D6"/>
<stop offset="1" stop-color="#0989FB"/>
</linearGradient>
<clipPath id="clip0_1_94">
<rect width="185.178" height="26" fill="white"/>
</clipPath>
</defs>
</svg>
